<svg width="97" height="40" viewBox="0 0 97 40" fill="none" xmlns="http://www.w3.org/2000/svg">
<g id="Group 314">
<path id="c" d="M21.4483 19.0541C20.0994 19.0541 18.9023 18.7759 17.8569 18.2195C16.8115 17.6462 15.9853 16.879 15.3783 15.9179C14.7713 14.9399 14.4678 13.8271 14.4678 12.5794C14.4678 11.3316 14.7713 10.2272 15.3783 9.26612C15.9853 8.28816 16.8115 7.51254 17.8569 6.93926C18.9023 6.36598 20.0994 6.07933 21.4483 6.07933H23.3958V9.39258H21.6001C20.9425 9.39258 20.3777 9.5359 19.9055 9.82254C19.4334 10.0923 19.0625 10.4717 18.7927 10.9607C18.5398 11.4328 18.4133 11.9724 18.4133 12.5794C18.4133 13.1864 18.5398 13.7344 18.7927 14.2233C19.0625 14.6955 19.4334 15.0748 19.9055 15.3615C20.3777 15.6313 20.9425 15.7661 21.6001 15.7661H23.3958V19.0541H21.4483Z" fill="#3CB4E2"/>
<path id="C" d="M12.0149 24.2655C10.1854 24.2655 8.53428 23.9643 7.0617 23.3619C5.61143 22.7371 4.35081 21.8892 3.27984 20.8182C2.23118 19.7472 1.4168 18.5089 0.836694 17.1032C0.278898 15.6752 0 14.1579 0 12.5514C0 10.9449 0.278898 9.43884 0.836694 8.03316C1.4168 6.60516 2.23118 5.35566 3.27984 4.28466C4.35081 3.21366 5.61143 2.37694 7.0617 1.7745C8.53428 1.14975 10.1854 0.837374 12.0149 0.837374H23.4281V4.35159H12.1153C10.9328 4.35159 9.85068 4.56356 8.86896 4.9875C7.88724 5.41144 7.02823 5.99156 6.29194 6.72787C5.57796 7.46419 5.02017 8.33438 4.61855 9.33844C4.21694 10.3202 4.01613 11.3912 4.01613 12.5514C4.01613 13.7117 4.21694 14.7938 4.61855 15.7979C5.02017 16.802 5.57796 17.6722 6.29194 18.4085C7.02823 19.1225 7.88724 19.6914 8.86896 20.1154C9.85068 20.517 10.9328 20.7178 12.1153 20.7178H23.4281V24.2655H12.0149Z" fill="#3CB4E2"/>
<g id="Group 186">
<g id="cash in">
<path id="Vector" d="M83.5908 19.0686V11.6081C83.5908 10.529 83.8522 9.55117 84.3748 8.67445C84.8975 7.79773 85.6393 7.09804 86.6003 6.57539C87.5782 6.05273 88.7331 5.7914 90.065 5.7914C91.4138 5.7914 92.5603 6.05273 93.5045 6.57539C94.4655 7.09804 95.1989 7.79773 95.7047 8.67445C96.2105 9.55117 96.4634 10.529 96.4634 11.6081V19.0686H92.5435V11.7092C92.5435 11.254 92.4339 10.841 92.2147 10.47C91.9955 10.0823 91.692 9.77878 91.3043 9.5596C90.9333 9.32356 90.5118 9.20554 90.0398 9.20554C89.5508 9.20554 89.1125 9.32356 88.7247 9.5596C88.3538 9.77878 88.0587 10.0823 87.8395 10.47C87.6204 10.841 87.5108 11.254 87.5108 11.7092V19.0686H83.5908Z" fill="#3CB4E2"/>
<path id="Vector_2" d="M76.7741 19.0686V6.09487H80.7193V19.0686H76.7741ZM78.7467 4.62805C78.1229 4.62805 77.5834 4.40044 77.1281 3.94523C76.6729 3.49001 76.4453 2.95049 76.4453 2.32667C76.4453 1.70285 76.6729 1.16333 77.1281 0.708117C77.5834 0.236038 78.1229 -1.90735e-06 78.7467 -1.90735e-06C79.3705 -1.90735e-06 79.91 0.236038 80.3653 0.708117C80.8205 1.16333 81.0481 1.70285 81.0481 2.32667C81.0481 2.95049 80.8205 3.49001 80.3653 3.94523C79.91 4.40044 79.3705 4.62805 78.7467 4.62805Z" fill="#3CB4E2"/>
<path id="Vector_3" d="M56.062 19.0686V0.606934H59.9819V6.95471C60.4877 6.55007 61.0441 6.25502 61.6511 6.06956C62.258 5.8841 62.865 5.79137 63.472 5.79137C64.6522 5.79137 65.6469 6.04427 66.4562 6.55007C67.2823 7.05586 67.8977 7.74712 68.3023 8.62384C68.7238 9.50056 68.9346 10.4953 68.9346 11.6081V19.0686H65.0146V11.7598C65.0146 11.2709 64.8966 10.8409 64.6606 10.47C64.4414 10.0822 64.1379 9.77875 63.7501 9.55957C63.3792 9.32353 62.9662 9.20551 62.5109 9.20551C62.0557 9.20551 61.6342 9.3151 61.2464 9.53428C60.8587 9.75346 60.5468 10.0485 60.3107 10.4194C60.0915 10.7903 59.9819 11.2118 59.9819 11.6839V19.0686H56.062Z" fill="#3CB4E2"/>
<path id="Vector_4" d="M42.6766 19.0687V15.958H48.9232C49.0918 15.958 49.2435 15.9243 49.3784 15.8568C49.5133 15.7725 49.6229 15.663 49.7072 15.5281C49.7915 15.3932 49.8336 15.2499 49.8336 15.0981C49.8336 14.9295 49.7915 14.7778 49.7072 14.6429C49.6229 14.508 49.5133 14.4069 49.3784 14.3394C49.2435 14.2551 49.0918 14.213 48.9232 14.213H46.6471C45.8041 14.213 45.037 14.0781 44.3457 13.8084C43.6713 13.5217 43.1318 13.0834 42.7272 12.4933C42.3394 11.8863 42.1455 11.1023 42.1455 10.1413C42.1455 9.39948 42.3225 8.72508 42.6766 8.11812C43.0475 7.51117 43.5449 7.02223 44.1687 6.65131C44.8094 6.28039 45.5091 6.09493 46.2678 6.09493H52.5144V9.23088H46.8747C46.6387 9.23088 46.4364 9.30675 46.2678 9.45849C46.116 9.61023 46.0402 9.79569 46.0402 10.0149C46.0402 10.2509 46.116 10.4532 46.2678 10.6218C46.4364 10.7736 46.6387 10.8494 46.8747 10.8494H49.1002C50.0444 10.8494 50.8537 10.9927 51.5281 11.2794C52.2193 11.5491 52.7504 11.9875 53.1213 12.5944C53.5091 13.2014 53.703 13.9854 53.703 14.9464C53.703 15.7051 53.5091 16.3964 53.1213 17.0202C52.7504 17.644 52.2446 18.1414 51.6039 18.5123C50.9801 18.8832 50.272 19.0687 49.4796 19.0687H42.6766Z" fill="#3CB4E2"/>
<path id="Vector_5" d="M31.6599 19.3721C30.5135 19.3721 29.5019 19.077 28.6252 18.4869C27.7484 17.8968 27.0656 17.1044 26.5767 16.1097C26.0877 15.0981 25.8433 13.96 25.8433 12.6955C25.8433 11.3805 26.1299 10.2087 26.7031 9.18025C27.2764 8.13493 28.0856 7.30879 29.131 6.70183C30.1931 6.09488 31.4408 5.7914 32.8739 5.7914C34.3238 5.7914 35.5546 6.09488 36.5662 6.70183C37.5947 7.29193 38.3786 8.10964 38.9182 9.15496C39.4745 10.1834 39.7527 11.3383 39.7527 12.6197V19.0686H35.9087V16.9948H35.8075C35.5715 17.4501 35.268 17.8631 34.8971 18.234C34.5261 18.5881 34.0709 18.8663 33.5314 19.0686C33.0087 19.2709 32.3849 19.3721 31.6599 19.3721ZM32.8233 15.9832C33.4134 15.9832 33.9276 15.8399 34.366 15.5533C34.8212 15.2498 35.1668 14.8368 35.4029 14.3141C35.6389 13.7914 35.7569 13.2098 35.7569 12.5691C35.7569 11.9453 35.6389 11.3805 35.4029 10.8747C35.1668 10.3689 34.8212 9.97267 34.366 9.68605C33.9276 9.38257 33.4134 9.23083 32.8233 9.23083C32.2163 9.23083 31.6852 9.38257 31.23 9.68605C30.7748 9.97267 30.4292 10.3689 30.1931 10.8747C29.9571 11.3805 29.8391 11.9453 29.8391 12.5691C29.8391 13.2098 29.9571 13.7914 30.1931 14.3141C30.4292 14.8368 30.7748 15.2498 31.23 15.5533C31.6852 15.8399 32.2163 15.9832 32.8233 15.9832Z" fill="#3CB4E2"/>
<path id="Vector_6" d="M31.7076 40C30.3588 40 29.1617 39.7218 28.1164 39.1654C27.0711 38.5922 26.2449 37.8251 25.638 36.864C25.031 35.8862 24.7275 34.7734 24.7275 33.5258C24.7275 32.2781 25.031 31.1738 25.638 30.2128C26.2449 29.2349 27.0711 28.4594 28.1164 27.8861C29.1617 27.3129 30.3588 27.0263 31.7076 27.0263H33.6549V30.3392H31.8593C31.2018 30.3392 30.637 30.4826 30.1649 30.7692C29.6928 31.0389 29.3219 31.4183 29.0521 31.9072C28.7992 32.3793 28.6728 32.9188 28.6728 33.5258C28.6728 34.1327 28.7992 34.6807 29.0521 35.1696C29.3219 35.6417 29.6928 36.021 30.1649 36.3077C30.637 36.5774 31.2018 36.7123 31.8593 36.7123H33.6549V40H31.7076Z" fill="#3CB4E2"/>
</g>
<g id="check">
<path id="Vector_7" d="M76.8931 39.9997V21.538H80.813V31.9322H82.5327L85.4916 27.026H89.8668L86.3768 32.438C87.3884 32.8595 88.1724 33.5086 88.7288 34.3853C89.302 35.2452 89.5886 36.2568 89.5886 37.4201V39.9997H85.6434V37.4201C85.6434 36.948 85.5254 36.5265 85.2893 36.1556C85.0701 35.7678 84.7751 35.4644 84.4042 35.2452C84.0333 35.026 83.6118 34.9164 83.1397 34.9164H80.813V39.9997H76.8931Z" fill="#3CB4E2"/>
<path id="Vector_8" d="M72.6436 39.9997C71.2948 39.9997 70.0977 39.7215 69.0524 39.1651C68.0071 38.5919 67.181 37.8248 66.574 36.8638C65.9671 35.8859 65.6636 34.7731 65.6636 33.5255C65.6636 32.2778 65.9671 31.1735 66.574 30.2125C67.181 29.2346 68.0071 28.4591 69.0524 27.8858C70.0977 27.3126 71.2948 27.026 72.6436 27.026H74.5909V30.339H72.7953C72.1378 30.339 71.573 30.4823 71.1009 30.7689C70.6288 31.0386 70.2579 31.418 69.9882 31.9069C69.7353 32.379 69.6088 32.9185 69.6088 33.5255C69.6088 34.1324 69.7353 34.6804 69.9882 35.1693C70.2579 35.6414 70.6288 36.0208 71.1009 36.3074C71.573 36.5771 72.1378 36.712 72.7953 36.712H74.5909V39.9997H72.6436Z" fill="#3CB4E2"/>
<path id="Vector_9" d="M58.4984 39.9998C57.0316 39.9998 55.7418 39.73 54.6291 39.1905C53.5163 38.6341 52.648 37.8754 52.0242 36.9144C51.4172 35.9365 51.1138 34.8069 51.1138 33.5256C51.1138 32.1093 51.4088 30.8954 51.9989 29.8838C52.589 28.8722 53.373 28.0967 54.3509 27.5571C55.3456 27.0008 56.4415 26.7226 57.6386 26.7226C59.0042 26.7226 60.1423 27.0092 61.0527 27.5824C61.98 28.1557 62.6797 28.9396 63.1518 29.9344C63.6239 30.9123 63.8599 32.0335 63.8599 33.2979C63.8599 33.5171 63.843 33.7785 63.8093 34.0819C63.7925 34.3686 63.7672 34.5962 63.7334 34.7648H55.236C55.3372 35.2031 55.5311 35.574 55.8177 35.8775C56.1043 36.181 56.4668 36.4086 56.9052 36.5603C57.3435 36.6952 57.8325 36.7627 58.372 36.7627H62.3425V39.9998H58.4984ZM55.1349 32.3116H60.0664C60.0327 32.0419 59.9821 31.7806 59.9147 31.5277C59.8472 31.2748 59.7376 31.0556 59.5859 30.8701C59.451 30.6678 59.2908 30.4992 59.1054 30.3643C58.9199 30.2126 58.7007 30.0946 58.4478 30.0103C58.2118 29.926 57.9421 29.8838 57.6386 29.8838C57.2508 29.8838 56.9052 29.9512 56.6017 30.0861C56.2982 30.221 56.0453 30.4065 55.843 30.6425C55.6407 30.8617 55.4805 31.123 55.3625 31.4265C55.2613 31.7131 55.1854 32.0082 55.1349 32.3116Z" fill="#3CB4E2"/>
<path id="Vector_10" d="M35.9146 39.9997V21.538H39.8345V27.8858C40.3403 27.4812 40.8967 27.1861 41.5036 27.0007C42.1106 26.8152 42.7175 26.7225 43.3245 26.7225C44.5047 26.7225 45.4994 26.9754 46.3087 27.4812C47.1349 27.987 47.7502 28.6782 48.1549 29.5549C48.5764 30.4317 48.7871 31.4264 48.7871 32.5392V39.9997H44.8672V32.6909C44.8672 32.202 44.7492 31.772 44.5131 31.4011C44.2939 31.0133 43.9905 30.7099 43.6027 30.4907C43.2318 30.2546 42.8187 30.1366 42.3635 30.1366C41.9083 30.1366 41.4868 30.2462 41.099 30.4654C40.7112 30.6846 40.3993 30.9796 40.1633 31.3505C39.9441 31.7215 39.8345 32.143 39.8345 32.615V39.9997H35.9146Z" fill="#3CB4E2"/>
</g>
</g>
<path id="Ellipse 30" d="M23.4282 12.563C23.4282 13.4368 22.7199 14.1451 21.8462 14.1451C20.9725 14.1451 20.2642 13.4368 20.2642 12.563C20.2642 11.6893 20.9725 10.981 21.8462 10.981C22.7199 10.981 23.4282 11.6893 23.4282 12.563Z" fill="#3CB4E2"/>
</g>
</svg>
