<svg width="40" height="40" viewBox="0 0 40 40" fill="none" xmlns="http://www.w3.org/2000/svg">
<g id="Group 304">
<g id="Group 164">
<path id="c" d="M36.6199 31.1022C34.3169 31.1022 32.2729 30.6272 30.4881 29.6771C28.7032 28.6984 27.2926 27.3885 26.2562 25.7476C25.2198 24.0779 24.7017 22.1778 24.7017 20.0475C24.7017 17.9172 25.2198 16.0316 26.2562 14.3907C27.2926 12.7209 28.7032 11.3967 30.4881 10.4179C32.2729 9.4391 34.3169 8.94971 36.6199 8.94971H39.945V14.6066H36.879C35.7563 14.6066 34.7919 14.8513 33.9858 15.3407C33.1798 15.8013 32.5464 16.449 32.0858 17.2839C31.654 18.0899 31.4381 19.0112 31.4381 20.0475C31.4381 21.0839 31.654 22.0195 32.0858 22.8544C32.5464 23.6604 33.1798 24.3082 33.9858 24.7976C34.7919 25.2582 35.7563 25.4885 36.879 25.4885H39.945V31.1022H36.6199Z" fill="#3CB4E2"/>
<path id="C" d="M20.5137 40C17.39 40 14.571 39.4857 12.0568 38.4571C9.58067 37.3905 7.42835 35.9429 5.59983 34.1143C3.80941 32.2857 2.41898 30.1714 1.42853 27.7714C0.476177 25.3333 0 22.7429 0 20C0 17.2571 0.476177 14.6857 1.42853 12.2857C2.41898 9.84762 3.80941 7.71429 5.59983 5.88572C7.42835 4.05714 9.58067 2.62857 12.0568 1.6C14.571 0.533334 17.39 0 20.5137 0H40V6H20.6851C18.6661 6 16.8185 6.3619 15.1424 7.08571C13.4663 7.80952 11.9996 8.8 10.7425 10.0571C9.52353 11.3143 8.57117 12.8 7.88548 14.5143C7.19979 16.1905 6.85694 18.019 6.85694 20C6.85694 21.981 7.19979 23.8286 7.88548 25.5429C8.57117 27.2571 9.52353 28.7429 10.7425 30C11.9996 31.219 13.4663 32.1905 15.1424 32.9143C16.8185 33.6 18.6661 33.9429 20.6851 33.9429H40V40H20.5137Z" fill="#3CB4E2"/>
<path id="Ellipse 25" d="M40.0001 20.0199C40.0001 21.5117 38.7908 22.721 37.299 22.721C35.8072 22.721 34.5979 21.5117 34.5979 20.0199C34.5979 18.5282 35.8072 17.3188 37.299 17.3188C38.7908 17.3188 40.0001 18.5282 40.0001 20.0199Z" fill="#3CB4E2"/>
</g>
</g>
</svg>
