<svg width="1200" height="468" viewBox="0 0 1200 468" fill="none" xmlns="http://www.w3.org/2000/svg">
<path d="M244.318 150.702C244.318 154.917 242.793 158.311 239.745 160.882C236.696 163.427 232.428 164.951 226.94 165.455V173.607H221.492V165.614C215.024 165.482 209.35 164.342 204.473 162.194V151.696C206.779 152.836 209.549 153.844 212.784 154.719C216.044 155.593 218.947 156.11 221.492 156.269V143.942L218.828 142.908C213.579 140.84 209.854 138.6 207.654 136.188C205.48 133.749 204.393 130.74 204.393 127.161C204.393 123.317 205.891 120.162 208.887 117.697C211.909 115.205 216.111 113.694 221.492 113.164V107.08H226.94V113.005C233.011 113.27 238.499 114.489 243.403 116.663L239.665 125.968C235.529 124.271 231.288 123.238 226.94 122.866V134.597C232.11 136.585 235.781 138.309 237.955 139.767C240.155 141.225 241.759 142.829 242.767 144.578C243.801 146.328 244.318 148.369 244.318 150.702ZM232.348 151.299C232.348 150.185 231.897 149.244 230.996 148.475C230.095 147.707 228.743 146.911 226.94 146.089V155.991C230.545 155.381 232.348 153.817 232.348 151.299ZM216.362 127.161C216.362 128.328 216.76 129.295 217.555 130.064C218.377 130.806 219.69 131.575 221.492 132.37V123.025C218.072 123.529 216.362 124.908 216.362 127.161Z" fill="black"/>
<path d="M271.835 169.67C257.997 169.67 251.078 162.075 251.078 146.885C251.078 139.329 252.96 133.563 256.724 129.587C260.489 125.584 265.884 123.582 272.909 123.582C278.052 123.582 282.665 124.59 286.747 126.604L283.168 135.989C281.26 135.22 279.483 134.597 277.84 134.12C276.196 133.616 274.553 133.364 272.909 133.364C266.599 133.364 263.445 137.845 263.445 146.805C263.445 155.501 266.599 159.848 272.909 159.848C275.242 159.848 277.402 159.543 279.391 158.934C281.379 158.297 283.367 157.317 285.355 155.991V166.37C283.394 167.616 281.405 168.477 279.391 168.955C277.402 169.432 274.884 169.67 271.835 169.67Z" fill="black"/>
<path d="M322.974 181.759H289.173V176.192H322.974V181.759Z" fill="black"/>
<path d="M353.911 123.582C359.16 123.582 363.269 125.637 366.238 129.746C369.208 133.828 370.692 139.435 370.692 146.567C370.692 153.91 369.155 159.596 366.079 163.626C363.031 167.656 358.869 169.67 353.593 169.67C348.37 169.67 344.275 167.775 341.305 163.984H340.47L338.442 168.875H329.177V107H341.305V121.395C341.305 123.224 341.146 126.154 340.828 130.183H341.305C344.142 125.783 348.344 123.582 353.911 123.582ZM350.014 133.285C347.018 133.285 344.831 134.213 343.453 136.069C342.074 137.898 341.358 140.933 341.305 145.175V146.487C341.305 151.259 342.008 154.679 343.413 156.747C344.845 158.814 347.098 159.848 350.173 159.848C352.665 159.848 354.64 158.708 356.098 156.428C357.583 154.122 358.325 150.782 358.325 146.408C358.325 142.033 357.583 138.759 356.098 136.585C354.614 134.385 352.586 133.285 350.014 133.285Z" fill="black"/>
<path d="M412.207 168.875L410.577 163.189H409.941C408.642 165.256 406.799 166.86 404.413 168C402.027 169.114 399.31 169.67 396.261 169.67C391.039 169.67 387.102 168.279 384.451 165.495C381.8 162.685 380.474 158.655 380.474 153.406V124.417H392.603V150.384C392.603 153.592 393.173 156.004 394.313 157.621C395.453 159.212 397.269 160.007 399.761 160.007C403.154 160.007 405.606 158.881 407.117 156.627C408.628 154.347 409.384 150.583 409.384 145.334V124.417H421.512V168.875H412.207Z" fill="black"/>
<path d="M452.967 160.007C455.088 160.007 457.633 159.543 460.602 158.616V167.642C457.58 168.994 453.868 169.67 449.467 169.67C444.616 169.67 441.077 168.451 438.85 166.012C436.65 163.546 435.55 159.862 435.55 154.957V133.524H429.744V128.394L436.424 124.338L439.924 114.953H447.678V124.417H460.125V133.524H447.678V154.957C447.678 156.68 448.155 157.953 449.11 158.775C450.09 159.596 451.376 160.007 452.967 160.007Z" fill="black"/>
<path d="M488.358 160.007C490.479 160.007 493.024 159.543 495.993 158.616V167.642C492.971 168.994 489.259 169.67 484.859 169.67C480.007 169.67 476.468 168.451 474.241 166.012C472.041 163.546 470.941 159.862 470.941 154.957V133.524H465.135V128.394L471.816 124.338L475.315 114.953H483.069V124.417H495.516V133.524H483.069V154.957C483.069 156.68 483.546 157.953 484.501 158.775C485.482 159.596 486.767 160.007 488.358 160.007Z" fill="black"/>
<path d="M514.683 146.567C514.683 150.967 515.399 154.294 516.83 156.548C518.288 158.801 520.648 159.928 523.908 159.928C527.143 159.928 529.462 158.814 530.867 156.587C532.299 154.334 533.015 150.994 533.015 146.567C533.015 142.166 532.299 138.865 530.867 136.665C529.436 134.465 527.09 133.364 523.829 133.364C520.595 133.364 518.262 134.465 516.83 136.665C515.399 138.839 514.683 142.139 514.683 146.567ZM545.421 146.567C545.421 153.804 543.513 159.464 539.695 163.546C535.878 167.629 530.562 169.67 523.749 169.67C519.481 169.67 515.717 168.742 512.456 166.887C509.195 165.005 506.69 162.314 504.94 158.814C503.191 155.315 502.316 151.232 502.316 146.567C502.316 139.303 504.211 133.656 508.002 129.627C511.793 125.597 517.122 123.582 523.988 123.582C528.256 123.582 532.021 124.51 535.281 126.366C538.542 128.221 541.047 130.886 542.797 134.359C544.547 137.831 545.421 141.901 545.421 146.567Z" fill="black"/>
<path d="M596.48 168.875H584.352V142.908C584.352 139.7 583.782 137.301 582.642 135.711C581.502 134.094 579.686 133.285 577.194 133.285C573.801 133.285 571.349 134.425 569.837 136.705C568.326 138.958 567.571 142.709 567.571 147.958V168.875H555.442V124.417H564.708L566.338 130.104H567.014C568.366 127.956 570.222 126.339 572.581 125.252C574.967 124.139 577.671 123.582 580.693 123.582C585.863 123.582 589.786 124.987 592.464 127.797C595.142 130.581 596.48 134.61 596.48 139.886V168.875Z" fill="black"/>
<path d="M636.246 181.759H602.445V176.192H636.246V181.759Z" fill="black"/>
<path d="M667.183 123.582C672.432 123.582 676.541 125.637 679.51 129.746C682.48 133.828 683.964 139.435 683.964 146.567C683.964 153.91 682.427 159.596 679.351 163.626C676.303 167.656 672.141 169.67 666.865 169.67C661.643 169.67 657.547 167.775 654.578 163.984H653.742L651.714 168.875H642.449V107H654.578V121.395C654.578 123.224 654.419 126.154 654.1 130.183H654.578C657.414 125.783 661.616 123.582 667.183 123.582ZM663.286 133.285C660.291 133.285 658.103 134.213 656.725 136.069C655.346 137.898 654.631 140.933 654.578 145.175V146.487C654.578 151.259 655.28 154.679 656.685 156.747C658.117 158.814 660.37 159.848 663.445 159.848C665.937 159.848 667.912 158.708 669.37 156.428C670.855 154.122 671.597 150.782 671.597 146.408C671.597 142.033 670.855 138.759 669.37 136.585C667.886 134.385 665.858 133.285 663.286 133.285Z" fill="black"/>
<path d="M722.219 168.875L719.872 162.831H719.554C717.513 165.402 715.405 167.192 713.232 168.199C711.084 169.18 708.274 169.67 704.801 169.67C700.533 169.67 697.166 168.451 694.701 166.012C692.262 163.573 691.042 160.1 691.042 155.593C691.042 150.875 692.686 147.402 695.973 145.175C699.287 142.921 704.271 141.675 710.925 141.437L718.64 141.198V139.25C718.64 134.743 716.333 132.49 711.72 132.49C708.168 132.49 703.993 133.563 699.194 135.711L695.178 127.519C700.295 124.841 705.968 123.503 712.198 123.503C718.162 123.503 722.736 124.802 725.917 127.4C729.098 129.998 730.689 133.948 730.689 139.25V168.875H722.219ZM718.64 148.277L713.947 148.436C710.422 148.542 707.797 149.178 706.074 150.344C704.351 151.511 703.489 153.287 703.489 155.673C703.489 159.093 705.451 160.803 709.374 160.803C712.184 160.803 714.425 159.994 716.095 158.377C717.791 156.76 718.64 154.612 718.64 151.935V148.277Z" fill="black"/>
<path d="M761.268 169.67C747.43 169.67 740.511 162.075 740.511 146.885C740.511 139.329 742.393 133.563 746.157 129.587C749.922 125.584 755.317 123.582 762.342 123.582C767.485 123.582 772.098 124.59 776.18 126.604L772.601 135.989C770.693 135.22 768.916 134.597 767.273 134.12C765.629 133.616 763.986 133.364 762.342 133.364C756.032 133.364 752.878 137.845 752.878 146.805C752.878 155.501 756.032 159.848 762.342 159.848C764.675 159.848 766.835 159.543 768.824 158.934C770.812 158.297 772.8 157.317 774.789 155.991V166.37C772.827 167.616 770.838 168.477 768.824 168.955C766.835 169.432 764.317 169.67 761.268 169.67Z" fill="black"/>
<path d="M796.779 144.698L802.068 137.938L814.514 124.417H828.193L810.538 143.703L829.267 168.875H815.27L802.465 150.861L797.256 155.037V168.875H785.128V107H797.256V134.597L796.62 144.698H796.779Z" fill="black"/>
<path d="M874.321 124.417V130.581L867.362 132.37C868.635 134.359 869.271 136.585 869.271 139.051C869.271 143.823 867.601 147.547 864.261 150.225C860.947 152.876 856.334 154.202 850.422 154.202L848.235 154.082L846.446 153.883C845.2 154.838 844.577 155.898 844.577 157.065C844.577 158.814 846.804 159.689 851.257 159.689H858.813C863.691 159.689 867.402 160.736 869.947 162.831C872.519 164.925 873.804 168 873.804 172.056C873.804 177.252 871.631 181.282 867.283 184.145C862.962 187.008 856.745 188.44 848.633 188.44C842.43 188.44 837.684 187.353 834.397 185.179C831.136 183.032 829.506 180.009 829.506 176.112C829.506 173.435 830.341 171.195 832.011 169.392C833.681 167.589 836.133 166.304 839.368 165.535C838.122 165.005 837.035 164.143 836.107 162.95C835.179 161.73 834.715 160.445 834.715 159.093C834.715 157.396 835.205 155.991 836.186 154.878C837.167 153.738 838.586 152.624 840.441 151.537C838.108 150.53 836.253 148.913 834.874 146.686C833.522 144.459 832.846 141.835 832.846 138.812C832.846 133.961 834.423 130.21 837.578 127.559C840.733 124.908 845.24 123.582 851.098 123.582C852.344 123.582 853.816 123.701 855.512 123.94C857.235 124.152 858.336 124.311 858.813 124.417H874.321ZM840.004 175.158C840.004 176.828 840.799 178.14 842.39 179.095C844.007 180.049 846.26 180.526 849.15 180.526C853.498 180.526 856.904 179.93 859.37 178.737C861.835 177.544 863.068 175.913 863.068 173.846C863.068 172.176 862.339 171.022 860.881 170.386C859.423 169.75 857.169 169.432 854.121 169.432H847.838C845.611 169.432 843.742 169.949 842.231 170.983C840.746 172.043 840.004 173.435 840.004 175.158ZM844.418 138.971C844.418 141.384 844.961 143.293 846.048 144.698C847.162 146.103 848.845 146.805 851.098 146.805C853.378 146.805 855.048 146.103 856.109 144.698C857.169 143.293 857.699 141.384 857.699 138.971C857.699 133.616 855.499 130.939 851.098 130.939C846.645 130.939 844.418 133.616 844.418 138.971Z" fill="black"/>
<path d="M906.492 123.582C908.135 123.582 909.501 123.701 910.587 123.94L909.673 135.313C908.692 135.048 907.499 134.915 906.094 134.915C902.223 134.915 899.201 135.909 897.027 137.898C894.88 139.886 893.806 142.67 893.806 146.248V168.875H881.678V124.417H890.864L892.653 131.893H893.25C894.628 129.401 896.484 127.4 898.817 125.889C901.176 124.351 903.735 123.582 906.492 123.582Z" fill="black"/>
<path d="M928.323 146.567C928.323 150.967 929.039 154.294 930.47 156.548C931.928 158.801 934.288 159.928 937.548 159.928C940.783 159.928 943.102 158.814 944.507 156.587C945.939 154.334 946.655 150.994 946.655 146.567C946.655 142.166 945.939 138.865 944.507 136.665C943.076 134.465 940.73 133.364 937.469 133.364C934.235 133.364 931.902 134.465 930.47 136.665C929.039 138.839 928.323 142.139 928.323 146.567ZM959.062 146.567C959.062 153.804 957.153 159.464 953.335 163.546C949.518 167.629 944.203 169.67 937.389 169.67C933.121 169.67 929.357 168.742 926.096 166.887C922.835 165.005 920.33 162.314 918.58 158.814C916.831 155.315 915.956 151.232 915.956 146.567C915.956 139.303 917.851 133.656 921.642 129.627C925.433 125.597 930.762 123.582 937.628 123.582C941.896 123.582 945.661 124.51 948.921 126.366C952.182 128.221 954.687 130.886 956.437 134.359C958.187 137.831 959.062 141.901 959.062 146.567Z" fill="black"/>
<path d="M1000.58 168.875L998.946 163.189H998.31C997.011 165.256 995.169 166.86 992.783 168C990.397 169.114 987.679 169.67 984.631 169.67C979.408 169.67 975.471 168.279 972.82 165.495C970.169 162.685 968.844 158.655 968.844 153.406V124.417H980.972V150.384C980.972 153.592 981.542 156.004 982.682 157.621C983.822 159.212 985.638 160.007 988.13 160.007C991.523 160.007 993.976 158.881 995.487 156.627C996.998 154.347 997.753 150.583 997.753 145.334V124.417H1009.88V168.875H1000.58Z" fill="black"/>
<path d="M1063.64 168.875H1051.52V142.908C1051.52 139.7 1050.95 137.301 1049.81 135.711C1048.67 134.094 1046.85 133.285 1044.36 133.285C1040.97 133.285 1038.51 134.425 1037 136.705C1035.49 138.958 1034.74 142.709 1034.74 147.958V168.875H1022.61V124.417H1031.87L1033.5 130.104H1034.18C1035.53 127.956 1037.39 126.339 1039.75 125.252C1042.13 124.139 1044.84 123.582 1047.86 123.582C1053.03 123.582 1056.95 124.987 1059.63 127.797C1062.31 130.581 1063.64 134.61 1063.64 139.886V168.875Z" fill="black"/>
<path d="M1090.21 169.67C1084.99 169.67 1080.88 167.642 1077.88 163.586C1074.91 159.53 1073.43 153.91 1073.43 146.726C1073.43 139.435 1074.94 133.762 1077.96 129.706C1081.01 125.623 1085.2 123.582 1090.53 123.582C1096.12 123.582 1100.39 125.756 1103.33 130.104H1103.73C1103.12 126.79 1102.81 123.834 1102.81 121.236V107H1114.98V168.875H1105.68L1103.33 163.109H1102.81C1100.06 167.483 1095.85 169.67 1090.21 169.67ZM1094.46 160.007C1097.56 160.007 1099.83 159.106 1101.26 157.303C1102.72 155.501 1103.52 152.439 1103.65 148.117V146.805C1103.65 142.033 1102.91 138.614 1101.42 136.546C1099.96 134.478 1097.58 133.444 1094.26 133.444C1091.56 133.444 1089.45 134.597 1087.94 136.904C1086.46 139.183 1085.71 142.511 1085.71 146.885C1085.71 151.259 1086.47 154.546 1087.98 156.747C1089.49 158.92 1091.65 160.007 1094.46 160.007Z" fill="black"/>
<path d="M53.2712 324.968L45 303.176H48.5391L53.2314 316.1C54.2919 319.122 54.9148 321.084 55.1004 321.985H55.2595C55.4053 321.283 55.8626 319.831 56.6314 317.631C57.4134 315.417 59.1565 310.599 61.8605 303.176H65.3997L57.1285 324.968H53.2712Z" fill="#1E88E5"/>
<path d="M82.3 324.968L81.6439 321.866H81.4848C80.3979 323.231 79.3109 324.159 78.224 324.65C77.1504 325.127 75.805 325.365 74.1878 325.365C72.0272 325.365 70.3306 324.809 69.0979 323.695C67.8784 322.582 67.2686 320.998 67.2686 318.943C67.2686 314.542 70.7879 312.236 77.8264 312.024L81.5246 311.905V310.553C81.5246 308.843 81.1534 307.584 80.4111 306.775C79.6821 305.953 78.509 305.542 76.8919 305.542C75.0759 305.542 73.0214 306.099 70.7282 307.212L69.7142 304.687C70.7879 304.104 71.961 303.647 73.2335 303.315C74.5192 302.984 75.805 302.818 77.0907 302.818C79.6887 302.818 81.6107 303.395 82.8567 304.548C84.1159 305.701 84.7456 307.55 84.7456 310.095V324.968H82.3ZM74.844 322.641C76.8985 322.641 78.509 322.078 79.6755 320.951C80.8552 319.825 81.445 318.247 81.445 316.219V314.251L78.1445 314.39C75.52 314.483 73.6245 314.894 72.458 315.623C71.3048 316.339 70.7282 317.459 70.7282 318.983C70.7282 320.176 71.0861 321.084 71.8019 321.707C72.5309 322.33 73.545 322.641 74.844 322.641Z" fill="#1E88E5"/>
<path d="M101.507 302.779C102.474 302.779 103.343 302.858 104.111 303.017L103.654 306.079C102.753 305.88 101.957 305.781 101.268 305.781C99.5052 305.781 97.9941 306.497 96.7348 307.928C95.4889 309.36 94.8659 311.143 94.8659 313.277V324.968H91.5653V303.176H94.2893L94.667 307.212H94.8261C95.6347 305.794 96.6089 304.701 97.7489 303.932C98.8888 303.163 100.141 302.779 101.507 302.779Z" fill="#1E88E5"/>
<path d="M111.488 324.968H108.187V303.176H111.488V324.968ZM107.909 297.271C107.909 296.515 108.094 295.965 108.466 295.621C108.837 295.263 109.301 295.084 109.857 295.084C110.388 295.084 110.845 295.263 111.229 295.621C111.614 295.979 111.806 296.529 111.806 297.271C111.806 298.013 111.614 298.57 111.229 298.941C110.845 299.299 110.388 299.478 109.857 299.478C109.301 299.478 108.837 299.299 108.466 298.941C108.094 298.57 107.909 298.013 107.909 297.271Z" fill="#1E88E5"/>
<path d="M131.887 324.968L131.231 321.866H131.072C129.985 323.231 128.898 324.159 127.812 324.65C126.738 325.127 125.392 325.365 123.775 325.365C121.615 325.365 119.918 324.809 118.685 323.695C117.466 322.582 116.856 320.998 116.856 318.943C116.856 314.542 120.375 312.236 127.414 312.024L131.112 311.905V310.553C131.112 308.843 130.741 307.584 129.999 306.775C129.27 305.953 128.097 305.542 126.479 305.542C124.663 305.542 122.609 306.099 120.316 307.212L119.302 304.687C120.375 304.104 121.548 303.647 122.821 303.315C124.107 302.984 125.392 302.818 126.678 302.818C129.276 302.818 131.198 303.395 132.444 304.548C133.703 305.701 134.333 307.55 134.333 310.095V324.968H131.887ZM124.431 322.641C126.486 322.641 128.097 322.078 129.263 320.951C130.443 319.825 131.033 318.247 131.033 316.219V314.251L127.732 314.39C125.107 314.483 123.212 314.894 122.046 315.623C120.892 316.339 120.316 317.459 120.316 318.983C120.316 320.176 120.674 321.084 121.389 321.707C122.118 322.33 123.132 322.641 124.431 322.641Z" fill="#1E88E5"/>
<path d="M151.293 302.818C154.156 302.818 156.376 303.799 157.954 305.761C159.544 307.709 160.34 310.473 160.34 314.052C160.34 317.631 159.538 320.415 157.934 322.403C156.343 324.378 154.13 325.365 151.293 325.365C149.875 325.365 148.576 325.107 147.396 324.59C146.23 324.06 145.249 323.251 144.453 322.164H144.215L143.519 324.968H141.153V294.03H144.453V301.546C144.453 303.229 144.4 304.74 144.294 306.079H144.453C145.991 303.905 148.271 302.818 151.293 302.818ZM150.816 305.582C148.562 305.582 146.939 306.232 145.945 307.531C144.95 308.816 144.453 310.99 144.453 314.052C144.453 317.114 144.964 319.308 145.984 320.633C147.005 321.945 148.642 322.602 150.895 322.602C152.923 322.602 154.434 321.866 155.429 320.395C156.423 318.91 156.92 316.783 156.92 314.012C156.92 311.176 156.423 309.061 155.429 307.67C154.434 306.278 152.897 305.582 150.816 305.582Z" fill="#1E88E5"/>
<path d="M169.426 324.968H166.126V294.03H169.426V324.968Z" fill="#1E88E5"/>
<path d="M185.63 325.365C182.409 325.365 179.864 324.384 177.996 322.423C176.14 320.461 175.212 317.737 175.212 314.251C175.212 310.738 176.074 307.948 177.797 305.88C179.533 303.812 181.859 302.779 184.776 302.779C187.506 302.779 189.667 303.68 191.257 305.483C192.848 307.272 193.643 309.638 193.643 312.581V314.668H178.632C178.698 317.227 179.341 319.169 180.56 320.494C181.793 321.82 183.523 322.482 185.75 322.482C188.096 322.482 190.416 321.992 192.709 321.011V323.954C191.542 324.457 190.435 324.815 189.388 325.027C188.354 325.253 187.102 325.365 185.63 325.365ZM184.736 305.542C182.986 305.542 181.588 306.112 180.54 307.252C179.507 308.392 178.897 309.969 178.711 311.984H190.104C190.104 309.903 189.64 308.313 188.712 307.212C187.784 306.099 186.459 305.542 184.736 305.542Z" fill="#1E88E5"/>
<path d="M216.906 322.641C217.489 322.641 218.053 322.602 218.596 322.522C219.139 322.429 219.57 322.337 219.888 322.244V324.769C219.531 324.941 219 325.08 218.298 325.186C217.609 325.306 216.986 325.365 216.429 325.365C212.214 325.365 210.106 323.145 210.106 318.705V305.741H206.985V304.15L210.106 302.779L211.498 298.126H213.407V303.176H219.729V305.741H213.407V318.565C213.407 319.878 213.718 320.885 214.341 321.588C214.964 322.29 215.819 322.641 216.906 322.641Z" fill="#1E88E5"/>
<path d="M220.803 303.176H224.342L229.114 315.603C230.161 318.44 230.811 320.487 231.062 321.747H231.222C231.394 321.071 231.752 319.917 232.295 318.287C232.852 316.643 234.655 311.606 237.703 303.176H241.242L231.878 327.99C230.95 330.442 229.863 332.178 228.617 333.199C227.384 334.233 225.866 334.75 224.064 334.75C223.056 334.75 222.062 334.637 221.081 334.412V331.768C221.81 331.927 222.626 332.006 223.527 332.006C225.794 332.006 227.411 330.734 228.378 328.189L229.591 325.087L220.803 303.176Z" fill="#1E88E5"/>
<path d="M254.922 325.365C253.503 325.365 252.204 325.107 251.025 324.59C249.858 324.06 248.877 323.251 248.082 322.164H247.844C248.003 323.437 248.082 324.643 248.082 325.783V334.75H244.782V303.176H247.466L247.923 306.159H248.082C248.93 304.966 249.918 304.104 251.045 303.574C252.171 303.044 253.464 302.779 254.922 302.779C257.811 302.779 260.038 303.766 261.602 305.741C263.18 307.716 263.968 310.486 263.968 314.052C263.968 317.631 263.166 320.415 261.563 322.403C259.972 324.378 257.758 325.365 254.922 325.365ZM254.445 305.582C252.218 305.582 250.607 306.198 249.613 307.431C248.619 308.664 248.109 310.626 248.082 313.316V314.052C248.082 317.114 248.592 319.308 249.613 320.633C250.634 321.945 252.271 322.602 254.524 322.602C256.406 322.602 257.878 321.839 258.938 320.315C260.012 318.791 260.549 316.69 260.549 314.012C260.549 311.295 260.012 309.214 258.938 307.769C257.878 306.311 256.38 305.582 254.445 305.582Z" fill="#1E88E5"/>
<path d="M278.96 325.365C275.739 325.365 273.194 324.384 271.325 322.423C269.469 320.461 268.541 317.737 268.541 314.251C268.541 310.738 269.403 307.948 271.126 305.88C272.863 303.812 275.189 302.779 278.105 302.779C280.836 302.779 282.996 303.68 284.587 305.483C286.177 307.272 286.973 309.638 286.973 312.581V314.668H271.961C272.028 317.227 272.67 319.169 273.89 320.494C275.123 321.82 276.852 322.482 279.079 322.482C281.425 322.482 283.745 321.992 286.038 321.011V323.954C284.872 324.457 283.765 324.815 282.718 325.027C281.684 325.253 280.431 325.365 278.96 325.365ZM278.065 305.542C276.316 305.542 274.917 306.112 273.87 307.252C272.836 308.392 272.226 309.969 272.041 311.984H283.434C283.434 309.903 282.97 308.313 282.042 307.212C281.114 306.099 279.788 305.542 278.065 305.542Z" fill="#1E88E5"/>
<path d="M648.878 325.365C647.46 325.365 646.161 325.107 644.981 324.59C643.815 324.06 642.834 323.251 642.039 322.164H641.8C641.959 323.437 642.039 324.643 642.039 325.783V334.75H638.738V303.176H641.422L641.879 306.159H642.039C642.887 304.966 643.874 304.104 645.001 303.574C646.128 303.044 647.42 302.779 648.878 302.779C651.768 302.779 653.995 303.766 655.559 305.741C657.136 307.716 657.925 310.486 657.925 314.052C657.925 317.631 657.123 320.414 655.519 322.403C653.928 324.378 651.715 325.365 648.878 325.365ZM648.401 305.582C646.174 305.582 644.564 306.198 643.569 307.431C642.575 308.664 642.065 310.626 642.039 313.316V314.052C642.039 317.114 642.549 319.308 643.569 320.633C644.59 321.945 646.227 322.602 648.481 322.602C650.363 322.602 651.834 321.839 652.894 320.315C653.968 318.791 654.505 316.69 654.505 314.012C654.505 311.295 653.968 309.214 652.894 307.769C651.834 306.311 650.336 305.582 648.401 305.582Z" fill="#1E88E5"/>
<path d="M677.112 324.968L676.455 321.866H676.296C675.21 323.231 674.123 324.159 673.036 324.65C671.962 325.127 670.617 325.365 668.999 325.365C666.839 325.365 665.142 324.809 663.909 323.695C662.69 322.582 662.08 320.998 662.08 318.943C662.08 314.542 665.6 312.236 672.638 312.024L676.336 311.905V310.553C676.336 308.843 675.965 307.583 675.223 306.775C674.494 305.953 673.321 305.542 671.704 305.542C669.888 305.542 667.833 306.099 665.54 307.212L664.526 304.687C665.6 304.104 666.773 303.647 668.045 303.315C669.331 302.984 670.617 302.818 671.902 302.818C674.5 302.818 676.422 303.395 677.668 304.548C678.928 305.701 679.557 307.55 679.557 310.095V324.968H677.112ZM669.656 322.641C671.71 322.641 673.321 322.078 674.487 320.951C675.667 319.825 676.257 318.247 676.257 316.219V314.251L672.956 314.39C670.332 314.483 668.436 314.894 667.27 315.623C666.116 316.339 665.54 317.459 665.54 318.983C665.54 320.176 665.898 321.084 666.614 321.707C667.343 322.33 668.357 322.641 669.656 322.641Z" fill="#1E88E5"/>
<path d="M696.318 302.779C697.286 302.779 698.154 302.858 698.923 303.017L698.466 306.079C697.564 305.88 696.769 305.781 696.08 305.781C694.317 305.781 692.806 306.497 691.546 307.928C690.3 309.36 689.678 311.143 689.678 313.277V324.968H686.377V303.176H689.101L689.479 307.212H689.638C690.446 305.794 691.421 304.701 692.56 303.932C693.7 303.163 694.953 302.779 696.318 302.779Z" fill="#1E88E5"/>
<path d="M710.037 322.641C710.621 322.641 711.184 322.602 711.727 322.522C712.271 322.429 712.702 322.336 713.02 322.244V324.769C712.662 324.941 712.132 325.08 711.429 325.186C710.74 325.306 710.117 325.365 709.56 325.365C705.345 325.365 703.238 323.145 703.238 318.705V305.741H700.116V304.15L703.238 302.779L704.629 298.126H706.538V303.176H712.861V305.741H706.538V318.565C706.538 319.878 706.85 320.885 707.473 321.588C708.096 322.29 708.95 322.641 710.037 322.641Z" fill="#1E88E5"/>
<path d="M746.781 314.052C746.781 317.604 745.886 320.381 744.097 322.383C742.307 324.371 739.835 325.365 736.68 325.365C734.732 325.365 733.002 324.908 731.491 323.993C729.98 323.079 728.813 321.767 727.992 320.057C727.17 318.347 726.759 316.345 726.759 314.052C726.759 310.5 727.647 307.736 729.423 305.761C731.199 303.773 733.665 302.779 736.819 302.779C739.868 302.779 742.287 303.793 744.077 305.821C745.879 307.849 746.781 310.592 746.781 314.052ZM730.179 314.052C730.179 316.836 730.735 318.956 731.849 320.414C732.962 321.873 734.599 322.602 736.76 322.602C738.92 322.602 740.557 321.879 741.671 320.434C742.798 318.976 743.361 316.849 743.361 314.052C743.361 311.282 742.798 309.181 741.671 307.749C740.557 306.304 738.907 305.582 736.72 305.582C734.559 305.582 732.929 306.291 731.829 307.709C730.729 309.128 730.179 311.242 730.179 314.052Z" fill="#1E88E5"/>
<path d="M762.408 305.741H756.861V324.968H753.561V305.741H749.664V304.25L753.561 303.057V301.844C753.561 296.489 755.9 293.811 760.579 293.811C761.732 293.811 763.085 294.043 764.635 294.507L763.78 297.152C762.508 296.741 761.421 296.535 760.52 296.535C759.274 296.535 758.352 296.953 757.756 297.788C757.159 298.61 756.861 299.935 756.861 301.764V303.176H762.408V305.741Z" fill="#1E88E5"/>
<path d="M784.001 322.641C784.584 322.641 785.148 322.602 785.691 322.522C786.235 322.429 786.665 322.336 786.984 322.244V324.769C786.626 324.941 786.095 325.08 785.393 325.186C784.704 325.306 784.081 325.365 783.524 325.365C779.309 325.365 777.201 323.145 777.201 318.705V305.741H774.08V304.15L777.201 302.779L778.593 298.126H780.502V303.176H786.824V305.741H780.502V318.565C780.502 319.878 780.813 320.885 781.436 321.588C782.059 322.29 782.914 322.641 784.001 322.641Z" fill="#1E88E5"/>
<path d="M806.27 324.968V310.871C806.27 309.095 805.865 307.769 805.057 306.894C804.248 306.019 802.982 305.582 801.259 305.582C798.966 305.582 797.289 306.205 796.229 307.451C795.182 308.697 794.658 310.738 794.658 313.575V324.968H791.358V294.03H794.658V303.395C794.658 304.522 794.605 305.456 794.499 306.198H794.698C795.348 305.151 796.269 304.329 797.462 303.733C798.668 303.123 800.04 302.818 801.577 302.818C804.242 302.818 806.237 303.455 807.562 304.727C808.901 305.986 809.57 307.994 809.57 310.751V324.968H806.27Z" fill="#1E88E5"/>
<path d="M825.576 325.365C822.355 325.365 819.81 324.384 817.941 322.423C816.085 320.461 815.157 317.737 815.157 314.251C815.157 310.738 816.019 307.948 817.742 305.88C819.479 303.812 821.805 302.779 824.721 302.779C827.451 302.779 829.612 303.68 831.203 305.483C832.793 307.272 833.589 309.638 833.589 312.581V314.668H818.577C818.643 317.227 819.286 319.168 820.506 320.494C821.739 321.82 823.468 322.482 825.695 322.482C828.041 322.482 830.361 321.992 832.654 321.011V323.954C831.488 324.457 830.381 324.815 829.334 325.027C828.3 325.253 827.047 325.365 825.576 325.365ZM824.681 305.542C822.931 305.542 821.533 306.112 820.486 307.252C819.452 308.392 818.842 309.969 818.657 311.984H830.049C830.049 309.903 829.586 308.313 828.658 307.212C827.73 306.099 826.404 305.542 824.681 305.542Z" fill="#1E88E5"/>
<path d="M859.019 325.365C855.798 325.365 853.253 324.384 851.384 322.423C849.528 320.461 848.6 317.737 848.6 314.251C848.6 310.738 849.462 307.948 851.185 305.88C852.921 303.812 855.248 302.779 858.164 302.779C860.894 302.779 863.055 303.68 864.645 305.483C866.236 307.272 867.031 309.638 867.031 312.581V314.668H852.02C852.086 317.227 852.729 319.168 853.949 320.494C855.181 321.82 856.911 322.482 859.138 322.482C861.484 322.482 863.804 321.992 866.097 321.011V323.954C864.93 324.457 863.824 324.815 862.776 325.027C861.743 325.253 860.49 325.365 859.019 325.365ZM858.124 305.542C856.374 305.542 854.976 306.112 853.929 307.252C852.895 308.392 852.285 309.969 852.099 311.984H863.492C863.492 309.903 863.028 308.313 862.1 307.212C861.173 306.099 859.847 305.542 858.124 305.542Z" fill="#1E88E5"/>
<path d="M875.979 324.968H872.678V294.03H875.979V324.968Z" fill="#1E88E5"/>
<path d="M892.183 325.365C888.962 325.365 886.417 324.384 884.548 322.423C882.692 320.461 881.764 317.737 881.764 314.251C881.764 310.738 882.626 307.948 884.349 305.88C886.086 303.812 888.412 302.779 891.328 302.779C894.059 302.779 896.219 303.68 897.81 305.483C899.4 307.272 900.196 309.638 900.196 312.581V314.668H885.184C885.251 317.227 885.893 319.168 887.113 320.494C888.346 321.82 890.075 322.482 892.302 322.482C894.648 322.482 896.968 321.992 899.261 321.011V323.954C898.095 324.457 896.988 324.815 895.941 325.027C894.907 325.253 893.654 325.365 892.183 325.365ZM891.288 305.542C889.539 305.542 888.14 306.112 887.093 307.252C886.059 308.392 885.449 309.969 885.264 311.984H896.657C896.657 309.903 896.193 308.313 895.265 307.212C894.337 306.099 893.011 305.542 891.288 305.542Z" fill="#1E88E5"/>
<path d="M933.619 324.968V310.791C933.619 309.055 933.247 307.756 932.505 306.894C931.763 306.019 930.61 305.582 929.046 305.582C926.991 305.582 925.473 306.172 924.492 307.352C923.512 308.531 923.021 310.347 923.021 312.799V324.968H919.721V310.791C919.721 309.055 919.349 307.756 918.607 306.894C917.865 306.019 916.705 305.582 915.128 305.582C913.06 305.582 911.542 306.205 910.575 307.451C909.62 308.684 909.143 310.712 909.143 313.535V324.968H905.842V303.176H908.527L909.063 306.159H909.223C909.845 305.098 910.72 304.27 911.847 303.673C912.987 303.077 914.259 302.779 915.664 302.779C919.071 302.779 921.298 304.011 922.345 306.477H922.504C923.154 305.337 924.095 304.435 925.327 303.773C926.56 303.11 927.965 302.779 929.543 302.779C932.008 302.779 933.851 303.415 935.07 304.687C936.303 305.946 936.919 307.968 936.919 310.751V324.968H933.619Z" fill="#1E88E5"/>
<path d="M952.945 325.365C949.724 325.365 947.179 324.384 945.31 322.423C943.454 320.461 942.526 317.737 942.526 314.251C942.526 310.738 943.388 307.948 945.111 305.88C946.847 303.812 949.173 302.779 952.09 302.779C954.82 302.779 956.981 303.68 958.571 305.483C960.162 307.272 960.957 309.638 960.957 312.581V314.668H945.946C946.012 317.227 946.655 319.168 947.875 320.494C949.107 321.82 950.837 322.482 953.064 322.482C955.41 322.482 957.73 321.992 960.023 321.011V323.954C958.856 324.457 957.75 324.815 956.702 325.027C955.669 325.253 954.416 325.365 952.945 325.365ZM952.05 305.542C950.3 305.542 948.902 306.112 947.855 307.252C946.821 308.392 946.211 309.969 946.025 311.984H957.418C957.418 309.903 956.954 308.313 956.026 307.212C955.099 306.099 953.773 305.542 952.05 305.542Z" fill="#1E88E5"/>
<path d="M981.516 324.968V310.871C981.516 309.095 981.112 307.769 980.303 306.894C979.495 306.019 978.229 305.582 976.506 305.582C974.226 305.582 972.556 306.198 971.495 307.431C970.435 308.664 969.905 310.698 969.905 313.535V324.968H966.604V303.176H969.288L969.825 306.159H969.984C970.66 305.085 971.608 304.256 972.827 303.673C974.047 303.077 975.405 302.779 976.903 302.779C979.528 302.779 981.503 303.415 982.828 304.687C984.154 305.946 984.817 307.968 984.817 310.751V324.968H981.516Z" fill="#1E88E5"/>
<path d="M998.655 322.641C999.238 322.641 999.802 322.602 1000.35 322.522C1000.89 322.429 1001.32 322.336 1001.64 322.244V324.769C1001.28 324.941 1000.75 325.08 1000.05 325.186C999.357 325.306 998.734 325.365 998.178 325.365C993.963 325.365 991.855 323.145 991.855 318.705V305.741H988.733V304.15L991.855 302.779L993.247 298.126H995.156V303.176H1001.48V305.741H995.156V318.565C995.156 319.878 995.467 320.885 996.09 321.588C996.713 322.29 997.568 322.641 998.655 322.641Z" fill="#1E88E5"/>
<path d="M1034.38 324.968L1030.39 312.183C1030.14 311.401 1029.67 309.625 1028.98 306.854H1028.82C1028.29 309.174 1027.82 310.964 1027.43 312.223L1023.31 324.968H1019.49L1013.55 303.176H1017.01C1018.41 308.651 1019.48 312.819 1020.21 315.682C1020.95 318.546 1021.37 320.474 1021.48 321.468H1021.64C1021.79 320.713 1022.02 319.738 1022.34 318.546C1022.67 317.339 1022.95 316.385 1023.19 315.682L1027.19 303.176H1030.77L1034.66 315.682C1035.4 317.962 1035.91 319.878 1036.17 321.429H1036.33C1036.39 320.951 1036.52 320.216 1036.75 319.222C1036.99 318.227 1038.37 312.879 1040.91 303.176H1044.33L1038.3 324.968H1034.38Z" fill="#1E88E5"/>
<path d="M1063.19 324.968V310.871C1063.19 309.095 1062.79 307.769 1061.98 306.894C1061.17 306.019 1059.91 305.582 1058.18 305.582C1055.89 305.582 1054.21 306.205 1053.15 307.451C1052.11 308.697 1051.58 310.738 1051.58 313.575V324.968H1048.28V294.03H1051.58V303.395C1051.58 304.522 1051.53 305.456 1051.42 306.198H1051.62C1052.27 305.151 1053.19 304.329 1054.39 303.733C1055.59 303.123 1056.96 302.818 1058.5 302.818C1061.17 302.818 1063.16 303.455 1064.49 304.727C1065.83 305.986 1066.49 307.994 1066.49 310.751V324.968H1063.19Z" fill="#1E88E5"/>
<path d="M1082.5 325.365C1079.28 325.365 1076.73 324.384 1074.87 322.423C1073.01 320.461 1072.08 317.737 1072.08 314.251C1072.08 310.738 1072.94 307.948 1074.67 305.88C1076.4 303.812 1078.73 302.779 1081.65 302.779C1084.38 302.779 1086.54 303.68 1088.13 305.483C1089.72 307.272 1090.51 309.638 1090.51 312.581V314.668H1075.5C1075.57 317.227 1076.21 319.168 1077.43 320.494C1078.66 321.82 1080.39 322.482 1082.62 322.482C1084.97 322.482 1087.29 321.992 1089.58 321.011V323.954C1088.41 324.457 1087.31 324.815 1086.26 325.027C1085.22 325.253 1083.97 325.365 1082.5 325.365ZM1081.61 305.542C1079.86 305.542 1078.46 306.112 1077.41 307.252C1076.38 308.392 1075.77 309.969 1075.58 311.984H1086.97C1086.97 309.903 1086.51 308.313 1085.58 307.212C1084.65 306.099 1083.33 305.542 1081.61 305.542Z" fill="#1E88E5"/>
<path d="M1106.1 302.779C1107.07 302.779 1107.94 302.858 1108.71 303.017L1108.25 306.079C1107.35 305.88 1106.55 305.781 1105.86 305.781C1104.1 305.781 1102.59 306.497 1101.33 307.928C1100.08 309.36 1099.46 311.143 1099.46 313.277V324.968H1096.16V303.176H1098.88L1099.26 307.212H1099.42C1100.23 305.794 1101.2 304.701 1102.34 303.932C1103.48 303.163 1104.74 302.779 1106.1 302.779Z" fill="#1E88E5"/>
<path d="M1121.99 325.365C1118.77 325.365 1116.22 324.384 1114.35 322.423C1112.5 320.461 1111.57 317.737 1111.57 314.251C1111.57 310.738 1112.43 307.948 1114.15 305.88C1115.89 303.812 1118.22 302.779 1121.13 302.779C1123.86 302.779 1126.02 303.68 1127.61 305.483C1129.2 307.272 1130 309.638 1130 312.581V314.668H1114.99C1115.06 317.227 1115.7 319.168 1116.92 320.494C1118.15 321.82 1119.88 322.482 1122.11 322.482C1124.45 322.482 1126.77 321.992 1129.07 321.011V323.954C1127.9 324.457 1126.79 324.815 1125.75 325.027C1124.71 325.253 1123.46 325.365 1121.99 325.365ZM1121.09 305.542C1119.34 305.542 1117.94 306.112 1116.9 307.252C1115.86 308.392 1115.25 309.969 1115.07 311.984H1126.46C1126.46 309.903 1126 308.313 1125.07 307.212C1124.14 306.099 1122.82 305.542 1121.09 305.542Z" fill="#1E88E5"/>
<path d="M645.776 376.934C646.36 376.934 646.923 376.895 647.466 376.815C648.01 376.722 648.441 376.63 648.759 376.537V379.062C648.401 379.234 647.871 379.373 647.168 379.479C646.479 379.599 645.856 379.658 645.299 379.658C641.084 379.658 638.977 377.438 638.977 372.998V360.034H635.855V358.443L638.977 357.072L640.368 352.419H642.277V357.469H648.6V360.034H642.277V372.858C642.277 374.171 642.589 375.178 643.212 375.881C643.835 376.583 644.69 376.934 645.776 376.934Z" fill="#1E88E5"/>
<path d="M668.045 379.261V365.164C668.045 363.388 667.641 362.062 666.832 361.187C666.024 360.312 664.758 359.875 663.035 359.875C660.742 359.875 659.065 360.498 658.004 361.744C656.957 362.99 656.434 365.031 656.434 367.868V379.261H653.133V348.323H656.434V357.688C656.434 358.815 656.381 359.749 656.275 360.491H656.473C657.123 359.444 658.044 358.622 659.237 358.026C660.443 357.416 661.815 357.111 663.353 357.111C666.017 357.111 668.012 357.748 669.337 359.02C670.676 360.279 671.346 362.287 671.346 365.045V379.261H668.045Z" fill="#1E88E5"/>
<path d="M687.351 379.658C684.13 379.658 681.585 378.677 679.716 376.716C677.861 374.754 676.933 372.03 676.933 368.544C676.933 365.031 677.794 362.241 679.517 360.173C681.254 358.105 683.58 357.072 686.496 357.072C689.227 357.072 691.387 357.973 692.978 359.776C694.569 361.565 695.364 363.931 695.364 366.874V368.961H680.353C680.419 371.52 681.062 373.462 682.281 374.787C683.514 376.113 685.244 376.775 687.471 376.775C689.817 376.775 692.136 376.285 694.429 375.304V378.247C693.263 378.75 692.156 379.108 691.109 379.32C690.075 379.546 688.823 379.658 687.351 379.658ZM686.457 359.835C684.707 359.835 683.308 360.405 682.261 361.545C681.227 362.685 680.618 364.263 680.432 366.277H691.825C691.825 364.196 691.361 362.606 690.433 361.505C689.505 360.392 688.18 359.835 686.457 359.835Z" fill="#1E88E5"/>
<path d="M720.297 379.658C717.142 379.658 714.697 378.691 712.96 376.755C711.237 374.807 710.375 372.057 710.375 368.504C710.375 364.859 711.25 362.042 713 360.054C714.763 358.066 717.268 357.072 720.516 357.072C721.563 357.072 722.61 357.184 723.657 357.41C724.704 357.635 725.526 357.9 726.123 358.205L725.109 361.008C724.379 360.717 723.584 360.478 722.723 360.293C721.861 360.094 721.099 359.994 720.436 359.994C716.009 359.994 713.795 362.818 713.795 368.464C713.795 371.142 714.332 373.196 715.406 374.628C716.493 376.06 718.097 376.775 720.217 376.775C722.033 376.775 723.896 376.384 725.804 375.602V378.525C724.346 379.281 722.51 379.658 720.297 379.658Z" fill="#1E88E5"/>
<path d="M749.803 368.345C749.803 371.897 748.908 374.674 747.119 376.676C745.329 378.664 742.857 379.658 739.702 379.658C737.754 379.658 736.024 379.201 734.513 378.286C733.002 377.372 731.835 376.06 731.014 374.35C730.192 372.64 729.781 370.638 729.781 368.345C729.781 364.793 730.669 362.029 732.445 360.054C734.221 358.066 736.687 357.072 739.842 357.072C742.89 357.072 745.309 358.086 747.099 360.114C748.901 362.142 749.803 364.885 749.803 368.345ZM733.201 368.345C733.201 371.129 733.757 373.249 734.871 374.708C735.984 376.166 737.621 376.895 739.782 376.895C741.943 376.895 743.58 376.172 744.693 374.727C745.82 373.269 746.383 371.142 746.383 368.345C746.383 365.575 745.82 363.474 744.693 362.042C743.58 360.597 741.929 359.875 739.742 359.875C737.582 359.875 735.951 360.584 734.851 362.003C733.751 363.421 733.201 365.535 733.201 368.345Z" fill="#1E88E5"/>
<path d="M758.909 379.261H755.609V348.323H758.909V379.261Z" fill="#1E88E5"/>
<path d="M784.717 368.345C784.717 371.897 783.822 374.674 782.033 376.676C780.243 378.664 777.771 379.658 774.616 379.658C772.668 379.658 770.938 379.201 769.427 378.286C767.916 377.372 766.75 376.06 765.928 374.35C765.106 372.64 764.695 370.638 764.695 368.345C764.695 364.793 765.583 362.029 767.359 360.054C769.135 358.066 771.601 357.072 774.756 357.072C777.804 357.072 780.223 358.086 782.013 360.114C783.816 362.142 784.717 364.885 784.717 368.345ZM768.115 368.345C768.115 371.129 768.672 373.249 769.785 374.708C770.898 376.166 772.535 376.895 774.696 376.895C776.857 376.895 778.494 376.172 779.607 374.727C780.734 373.269 781.297 371.142 781.297 368.345C781.297 365.575 780.734 363.474 779.607 362.042C778.494 360.597 776.843 359.875 774.656 359.875C772.496 359.875 770.865 360.584 769.765 362.003C768.665 363.421 768.115 365.535 768.115 368.345Z" fill="#1E88E5"/>
<path d="M800.464 357.072C801.432 357.072 802.3 357.151 803.069 357.31L802.611 360.372C801.71 360.173 800.915 360.074 800.225 360.074C798.462 360.074 796.951 360.79 795.692 362.221C794.446 363.653 793.823 365.436 793.823 367.57V379.261H790.523V357.469H793.247L793.624 361.505H793.783C794.592 360.087 795.566 358.994 796.706 358.225C797.846 357.456 799.099 357.072 800.464 357.072Z" fill="#1E88E5"/>
<path d="M821.023 379.261H817.722V357.469H821.023V379.261ZM817.444 351.564C817.444 350.809 817.629 350.258 818.001 349.914C818.372 349.556 818.836 349.377 819.392 349.377C819.923 349.377 820.38 349.556 820.764 349.914C821.149 350.272 821.341 350.822 821.341 351.564C821.341 352.306 821.149 352.863 820.764 353.234C820.38 353.592 819.923 353.771 819.392 353.771C818.836 353.771 818.372 353.592 818.001 353.234C817.629 352.863 817.444 352.306 817.444 351.564Z" fill="#1E88E5"/>
<path d="M842.079 373.316C842.079 375.344 841.323 376.908 839.812 378.008C838.301 379.108 836.18 379.658 833.449 379.658C830.56 379.658 828.306 379.201 826.689 378.286V375.225C827.736 375.755 828.857 376.172 830.049 376.477C831.256 376.782 832.416 376.934 833.529 376.934C835.252 376.934 836.578 376.663 837.506 376.119C838.433 375.563 838.897 374.721 838.897 373.594C838.897 372.746 838.526 372.023 837.784 371.427C837.055 370.817 835.623 370.101 833.489 369.28C831.461 368.524 830.016 367.868 829.155 367.311C828.306 366.741 827.67 366.098 827.246 365.383C826.835 364.667 826.63 363.812 826.63 362.818C826.63 361.042 827.352 359.643 828.797 358.622C830.242 357.589 832.223 357.072 834.742 357.072C837.088 357.072 839.381 357.549 841.621 358.503L840.448 361.187C838.261 360.286 836.279 359.835 834.503 359.835C832.939 359.835 831.759 360.081 830.964 360.571C830.169 361.061 829.771 361.737 829.771 362.599C829.771 363.182 829.917 363.679 830.209 364.09C830.513 364.501 830.997 364.892 831.66 365.263C832.323 365.634 833.595 366.171 835.477 366.874C838.062 367.815 839.805 368.763 840.707 369.717C841.621 370.671 842.079 371.871 842.079 373.316Z" fill="#1E88E5"/>
<path d="M871.445 379.261L870.789 376.159H870.63C869.543 377.524 868.456 378.452 867.369 378.943C866.296 379.42 864.95 379.658 863.333 379.658C861.173 379.658 859.476 379.102 858.243 377.988C857.024 376.875 856.414 375.291 856.414 373.236C856.414 368.836 859.933 366.529 866.972 366.317L870.67 366.198V364.846C870.67 363.136 870.299 361.877 869.556 361.068C868.827 360.246 867.654 359.835 866.037 359.835C864.221 359.835 862.167 360.392 859.874 361.505L858.86 358.98C859.933 358.397 861.106 357.94 862.379 357.608C863.665 357.277 864.95 357.111 866.236 357.111C868.834 357.111 870.756 357.688 872.002 358.841C873.261 359.994 873.891 361.843 873.891 364.388V379.261H871.445ZM863.989 376.934C866.044 376.934 867.654 376.371 868.821 375.244C870.001 374.118 870.59 372.54 870.59 370.512V368.544L867.29 368.683C864.665 368.776 862.77 369.187 861.603 369.916C860.45 370.632 859.874 371.752 859.874 373.276C859.874 374.469 860.231 375.377 860.947 376C861.676 376.623 862.69 376.934 863.989 376.934Z" fill="#1E88E5"/>
<path d="M890.851 379.658C889.433 379.658 888.134 379.4 886.954 378.883C885.787 378.353 884.807 377.544 884.011 376.457H883.773C883.932 377.73 884.011 378.936 884.011 380.076V389.043H880.711V357.469H883.395L883.852 360.452H884.011C884.86 359.259 885.847 358.397 886.974 357.867C888.1 357.337 889.393 357.072 890.851 357.072C893.74 357.072 895.967 358.059 897.531 360.034C899.109 362.009 899.897 364.779 899.897 368.345C899.897 371.924 899.096 374.708 897.492 376.696C895.901 378.671 893.687 379.658 890.851 379.658ZM890.374 359.875C888.147 359.875 886.536 360.491 885.542 361.724C884.548 362.957 884.038 364.919 884.011 367.609V368.345C884.011 371.407 884.522 373.601 885.542 374.926C886.563 376.239 888.2 376.895 890.453 376.895C892.335 376.895 893.807 376.132 894.867 374.608C895.941 373.084 896.478 370.983 896.478 368.305C896.478 365.588 895.941 363.507 894.867 362.062C893.807 360.604 892.309 359.875 890.374 359.875Z" fill="#1E88E5"/>
<path d="M915.824 379.658C914.405 379.658 913.106 379.4 911.927 378.883C910.76 378.353 909.779 377.544 908.984 376.457H908.745C908.904 377.73 908.984 378.936 908.984 380.076V389.043H905.683V357.469H908.368L908.825 360.452H908.984C909.832 359.259 910.82 358.397 911.946 357.867C913.073 357.337 914.365 357.072 915.824 357.072C918.713 357.072 920.94 358.059 922.504 360.034C924.082 362.009 924.87 364.779 924.87 368.345C924.87 371.924 924.068 374.708 922.464 376.696C920.874 378.671 918.66 379.658 915.824 379.658ZM915.346 359.875C913.12 359.875 911.509 360.491 910.515 361.724C909.521 362.957 909.01 364.919 908.984 367.609V368.345C908.984 371.407 909.494 373.601 910.515 374.926C911.536 376.239 913.173 376.895 915.426 376.895C917.308 376.895 918.779 376.132 919.84 374.608C920.914 373.084 921.45 370.983 921.45 368.305C921.45 365.588 920.914 363.507 919.84 362.062C918.779 360.604 917.282 359.875 915.346 359.875Z" fill="#1E88E5"/>
<path d="M933.957 379.261H930.656V348.323H933.957V379.261Z" fill="#1E88E5"/>
<path d="M944.256 379.261H940.955V357.469H944.256V379.261ZM940.677 351.564C940.677 350.809 940.863 350.258 941.234 349.914C941.605 349.556 942.069 349.377 942.625 349.377C943.156 349.377 943.613 349.556 943.997 349.914C944.382 350.272 944.574 350.822 944.574 351.564C944.574 352.306 944.382 352.863 943.997 353.234C943.613 353.592 943.156 353.771 942.625 353.771C942.069 353.771 941.605 353.592 941.234 353.234C940.863 352.863 940.677 352.306 940.677 351.564Z" fill="#1E88E5"/>
<path d="M960.46 379.658C957.239 379.658 954.694 378.677 952.825 376.716C950.97 374.754 950.042 372.03 950.042 368.544C950.042 365.031 950.903 362.241 952.626 360.173C954.363 358.105 956.689 357.072 959.605 357.072C962.336 357.072 964.496 357.973 966.087 359.776C967.678 361.565 968.473 363.931 968.473 366.874V368.961H953.462C953.528 371.52 954.171 373.462 955.39 374.787C956.623 376.113 958.353 376.775 960.58 376.775C962.926 376.775 965.245 376.285 967.539 375.304V378.247C966.372 378.75 965.265 379.108 964.218 379.32C963.184 379.546 961.932 379.658 960.46 379.658ZM959.566 359.835C957.816 359.835 956.417 360.405 955.37 361.545C954.336 362.685 953.727 364.263 953.541 366.277H964.934C964.934 364.196 964.47 362.606 963.542 361.505C962.614 360.392 961.289 359.835 959.566 359.835Z" fill="#1E88E5"/>
<path d="M988.952 376.338H988.773C987.249 378.552 984.969 379.658 981.934 379.658C979.084 379.658 976.863 378.684 975.273 376.736C973.696 374.787 972.907 372.017 972.907 368.425C972.907 364.832 973.702 362.042 975.293 360.054C976.883 358.066 979.097 357.072 981.934 357.072C984.889 357.072 987.156 358.145 988.733 360.293H988.992L988.853 358.722L988.773 357.191V348.323H992.074V379.261H989.39L988.952 376.338ZM982.351 376.895C984.605 376.895 986.235 376.285 987.242 375.065C988.263 373.833 988.773 371.851 988.773 369.121V368.425C988.773 365.336 988.256 363.136 987.222 361.824C986.202 360.498 984.565 359.835 982.311 359.835C980.376 359.835 978.892 360.591 977.858 362.102C976.837 363.6 976.327 365.721 976.327 368.464C976.327 371.248 976.837 373.349 977.858 374.767C978.878 376.186 980.376 376.895 982.351 376.895Z" fill="#1E88E5"/>
<path d="M396.785 325.365C393.564 325.365 391.019 324.384 389.15 322.423C387.294 320.461 386.366 317.737 386.366 314.251C386.366 310.738 387.228 307.948 388.951 305.88C390.688 303.812 393.014 302.779 395.93 302.779C398.661 302.779 400.821 303.68 402.412 305.483C404.002 307.272 404.798 309.638 404.798 312.581V314.668H389.786C389.853 317.227 390.495 319.169 391.715 320.494C392.948 321.82 394.677 322.482 396.904 322.482C399.25 322.482 401.57 321.992 403.863 321.011V323.954C402.697 324.457 401.59 324.815 400.543 325.027C399.509 325.253 398.256 325.365 396.785 325.365ZM395.89 305.542C394.141 305.542 392.742 306.112 391.695 307.252C390.661 308.392 390.051 309.969 389.866 311.984H401.259C401.259 309.903 400.795 308.313 399.867 307.212C398.939 306.099 397.613 305.542 395.89 305.542Z" fill="#1E88E5"/>
<path d="M413.745 324.968H410.444V294.03H413.745V324.968Z" fill="#1E88E5"/>
<path d="M429.949 325.365C426.728 325.365 424.183 324.384 422.314 322.423C420.459 320.461 419.531 317.737 419.531 314.251C419.531 310.738 420.392 307.948 422.116 305.88C423.852 303.812 426.178 302.779 429.094 302.779C431.825 302.779 433.986 303.68 435.576 305.483C437.167 307.272 437.962 309.638 437.962 312.581V314.668H422.951C423.017 317.227 423.66 319.169 424.879 320.494C426.112 321.82 427.842 322.482 430.069 322.482C432.415 322.482 434.734 321.992 437.028 321.011V323.954C435.861 324.457 434.754 324.815 433.707 325.027C432.673 325.253 431.421 325.365 429.949 325.365ZM429.055 305.542C427.305 305.542 425.907 306.112 424.859 307.252C423.826 308.392 423.216 309.969 423.03 311.984H434.423C434.423 309.903 433.959 308.313 433.031 307.212C432.103 306.099 430.778 305.542 429.055 305.542Z" fill="#1E88E5"/>
<path d="M471.385 324.968V310.791C471.385 309.055 471.014 307.756 470.272 306.894C469.529 306.019 468.376 305.582 466.812 305.582C464.757 305.582 463.24 306.172 462.259 307.352C461.278 308.531 460.787 310.347 460.787 312.799V324.968H457.487V310.791C457.487 309.055 457.116 307.756 456.374 306.894C455.631 306.019 454.471 305.582 452.894 305.582C450.826 305.582 449.309 306.205 448.341 307.451C447.387 308.684 446.909 310.712 446.909 313.535V324.968H443.609V303.176H446.293L446.83 306.159H446.989C447.612 305.098 448.487 304.27 449.613 303.673C450.753 303.077 452.026 302.779 453.431 302.779C456.837 302.779 459.064 304.011 460.111 306.477H460.271C460.92 305.337 461.861 304.435 463.094 303.773C464.327 303.11 465.732 302.779 467.309 302.779C469.774 302.779 471.617 303.415 472.836 304.687C474.069 305.947 474.685 307.968 474.685 310.752V324.968H471.385Z" fill="#1E88E5"/>
<path d="M490.711 325.365C487.49 325.365 484.945 324.384 483.076 322.423C481.22 320.461 480.292 317.737 480.292 314.251C480.292 310.738 481.154 307.948 482.877 305.88C484.614 303.812 486.94 302.779 489.856 302.779C492.587 302.779 494.747 303.68 496.338 305.483C497.928 307.272 498.724 309.638 498.724 312.581V314.668H483.712C483.779 317.227 484.421 319.169 485.641 320.494C486.874 321.82 488.603 322.482 490.83 322.482C493.176 322.482 495.496 321.992 497.789 321.011V323.954C496.623 324.457 495.516 324.815 494.469 325.027C493.435 325.253 492.182 325.365 490.711 325.365ZM489.816 305.542C488.067 305.542 486.668 306.112 485.621 307.252C484.587 308.392 483.977 309.969 483.792 311.984H495.185C495.185 309.903 494.721 308.313 493.793 307.212C492.865 306.099 491.539 305.542 489.816 305.542Z" fill="#1E88E5"/>
<path d="M519.282 324.968V310.871C519.282 309.095 518.878 307.769 518.07 306.894C517.261 306.019 515.995 305.582 514.272 305.582C511.992 305.582 510.322 306.198 509.262 307.431C508.201 308.664 507.671 310.698 507.671 313.535V324.968H504.37V303.176H507.055L507.591 306.159H507.75C508.426 305.085 509.374 304.256 510.594 303.673C511.813 303.077 513.172 302.779 514.67 302.779C517.294 302.779 519.269 303.415 520.595 304.687C521.92 305.947 522.583 307.968 522.583 310.752V324.968H519.282Z" fill="#1E88E5"/>
<path d="M536.421 322.641C537.005 322.641 537.568 322.602 538.111 322.522C538.655 322.429 539.086 322.337 539.404 322.244V324.769C539.046 324.941 538.516 325.08 537.813 325.186C537.124 325.306 536.501 325.365 535.944 325.365C531.729 325.365 529.621 323.145 529.621 318.705V305.741H526.5V304.15L529.621 302.779L531.013 298.126H532.922V303.176H539.245V305.741H532.922V318.565C532.922 319.878 533.233 320.885 533.856 321.588C534.479 322.29 535.334 322.641 536.421 322.641Z" fill="#1E88E5"/>
<path fill-rule="evenodd" clip-rule="evenodd" d="M268.76 189.235L268.76 284.248L265.367 284.248L265.367 189.235L268.76 189.235Z" fill="#1E88E5"/>
<path fill-rule="evenodd" clip-rule="evenodd" d="M655.598 189.235L655.598 284.248L652.205 284.248L652.205 189.235L655.598 189.235Z" fill="#1E88E5"/>
<path fill-rule="evenodd" clip-rule="evenodd" d="M465.573 189.235L465.573 284.248L462.179 284.248L462.179 189.235L465.573 189.235Z" fill="#1E88E5"/>
</svg>
